:FULLY-SPECIFIED
:FORCE-ALL-JOINTS-BE-3DOF
:DEGREES
102
root 7.34209 16.7162 -26.7667 3.4927 11.467 -3.76241
lfemur -26.9632 -1.60873 -11.5217
ltibia 38.9817 -0 0
lfoot -17.6463 -5.64232 -0.0164828
ltoes 23.5597 -0 0
rfemur -35.0914 -2.31806 2.83179
rtibia 82.8333 -0 0
rfoot 26.8149 17.0655 2.66451
rtoes 18.1607 -0 0
lowerback 1.54045 1.72135 0.481744
upperback -0.866298 2.34573 1.95503
thorax -1.8168 1.17639 1.65972
lowerneck -10.4936 -4.91472 2.4177
upperneck -1.25054 -6.81521 0.869387
head 1.31936 -3.37974 -0.427814
lclavicle -9.11726e-15 -4.8405e-16 -2.40075e-31
lhumerus -46.572 -9.97219 93.7184
lradius 48.5488 -0 0
lwrist 14.5226 0 0
lhand 5.9554 8.31055 0.117129
lfingers 7.12502 -0 0
lthumb 31.2656 35.5173 0.0695897
rclavicle -9.11726e-15 -4.8405e-16 -2.40075e-31
rhumerus -42.2072 2.05555 -72.8191
rradius 48.6762 -0 0
rwrist 5.12761 0 0
rhand -24.098 -16.3481 0.0231062
rfingers 7.12502 -0 0
rthumb 2.39473 -46.4886 -0.0376628
103
root 7.39458 16.7197 -26.7334 3.01776 11.7565 -3.57416
lfemur -26.125 -1.96662 -11.8262
ltibia 38.5784 -0 0
lfoot -17.579 -6.28413 -0.0112634
ltoes 23.9191 -0 0
rfemur -36.7069 -2.77273 2.07141
rtibia 85.1639 -0 0
rfoot 29.1534 18.6265 1.92831
rtoes 18.8224 -0 0
lowerback 1.9217 1.56763 0.276466
upperback -0.740547 2.13867 1.99462
thorax -1.90709 1.07615 1.81074
lowerneck -10.5198 -4.92002 2.34959
upperneck -1.03439 -6.81921 0.851389
head 1.39449 -3.37887 -0.425986
lclavicle -9.5542e-15 -1.10983e-15 -1.65191e-31
lhumerus -46.6515 -10.1585 93.8303
lradius 48.7402 -0 0
lwrist 14.7328 0 0
lhand 6.69064 8.55115 0.0847602
lfingers 7.12502 -0 0
lthumb 31.9698 35.6569 0.0501263
rclavicle -9.5542e-15 -1.10983e-15 -1.65191e-31
rhumerus -42.4115 1.8957 -71.8492
rradius 49.073 -0 0
rwrist 4.86424 0 0
rhand -23.7941 -16.1818 0.0223009
rfingers 7.12502 -0 0
rthumb 2.68624 -46.29 -0.0284714
104
root 7.44379 16.7234 -26.7023 2.54194 11.9932 -3.38955
lfemur -25.2869 -2.23457 -12.1362
ltibia 38.1795 -0 0
lfoot -17.5044 -6.85518 -0.00660282
ltoes 24.2596 -0 0
rfemur -38.2722 -3.33149 1.51446
rtibia 87.0409 -0 0
rfoot 31.0535 19.9921 1.21467
rtoes 19.1682 -0 0
lowerback 2.31747 1.41748 0.0741355
upperback -0.604261 1.93488 2.02444
thorax -1.99133 0.977414 1.95323
lowerneck -10.5511 -4.90951 2.28426
upperneck -0.833629 -6.80229 0.837317
head 1.46585 -3.36777 -0.422038
lclavicle -9.93663e-15 -1.55099e-15 -9.75973e-32
lhumerus -46.6987 -10.344 93.9197
lradius 48.9186 -0 0
lwrist 14.9123 0 0
lhand 7.33878 8.75072 0.0533321
lfingers 7.12502 -0 0
lthumb 32.5908 35.7681 0.0313622
rclavicle -9.93663e-15 -1.55099e-15 -9.75973e-32
rhumerus -42.5766 1.70872 -70.9155
rradius 49.5059 -0 0
rwrist 4.56854 0 0
rhand -23.3728 -16.0413 0.0184008
rfingers 7.12502 -0 0
rthumb 3.09042 -46.1056 -0.0189331
105
root 7.48928 16.7272 -26.6736 2.06646 12.1708 -3.20929
lfemur -24.454 -2.4037 -12.4472
ltibia 37.7862 -0 0
lfoot -17.4213 -7.34324 -0.00274873
ltoes 24.5756 -0 0
rfemur -39.7777 -3.99216 1.18646
rtibia 88.4096 -0 0
rfoot 32.4707 21.1516 0.560346
rtoes 19.1638 -0 0
lowerback 2.72791 1.27197 -0.124086
upperback -0.456849 1.73583 2.04357
thorax -2.06868 0.88079 2.08592
lowerneck -10.5878 -4.88182 2.22244
upperneck -0.650528 -6.76272 0.827595
head 1.53282 -3.34559 -0.415833
lclavicle -1.02609e-14 -1.78494e-15 -4.13018e-32
lhumerus -46.7101 -10.5271 93.983
lradius 49.0821 -0 0
lwrist 15.0576 0 0
lhand 7.88883 8.9045 0.0245346
lfingers 7.12502 -0 0
lthumb 33.1178 35.8477 0.0143287
rclavicle -1.02609e-14 -1.78494e-15 -4.13018e-32
rhumerus -42.6976 1.4912 -70.0249
rradius 49.9775 -0 0
rwrist 4.23813 0 0
rhand -22.8231 -15.9296 0.0110287
rfingers 7.12502 -0 0
rthumb 3.61799 -45.9371 -0.00936144
106
root 7.53062 16.7313 -26.6477 1.59258 12.283 -3.03397
lfemur -23.6313 -2.46527 -12.7543
ltibia 37.3992 0 0
lfoot -17.3285 -7.73592 0
ltoes 24.8613 0 0
rfemur -41.2156 -4.75181 1.11259
rtibia 89.2151 0 0
rfoot 33.361 22.0951 0
rtoes 18.775 0 0
lowerback 3.15315 1.13213 -0.317021
upperback -0.297715 1.54298 2.05108
thorax -2.13833 0.786902 2.20754
lowerneck -10.6307 -4.8356 2.16485
upperneck -0.487372 -6.69874 0.822634
head 1.59477 -3.31149 -0.407235
lclavicle -1.05232e-14 -1.78906e-15 0
lhumerus -46.6826 -10.7064 94.0168
lradius 49.2289 0 0
lwrist 15.1652 0 0
lhand 8.32967 9.00768 0
lfingers 7.12502 0 0
lthumb 33.5404 35.8923 0
rclavicle -1.05232e-14 -1.78906e-15 0
rhumerus -42.7698 1.23965 -69.1841
rradius 50.4904 0 0
rwrist 3.87067 0 0
rhand -22.1336 -15.8497 0
rfingers 7.12502 0 0
rthumb 4.27979 -45.7864 0
107
root 7.56958 16.7363 -26.6245 1.09588 12.3143 -2.85377
lfemur -22.7695 -2.41896 -13.0778
ltibia 36.9981 -0 0
lfoot -17.2207 -8.06898 0.00188743
ltoes 25.1704 -0 0
rfemur -42.6438 -5.627 1.31544
rtibia 89.3727 -0 0
rfoot 33.7058 22.8479 -0.45834
rtoes 17.9451 -0 0
lowerback 3.61409 0.99511 -0.509781
upperback -0.116732 1.3524 2.04734
thorax -2.20185 0.693643 2.32122
lowerneck -10.6823 -4.76438 2.11057
upperneck -0.337532 -6.60181 0.819669
head 1.65433 -3.26118 -0.396723
lclavicle -1.08162e-14 -1.53305e-15 2.77695e-32
lhumerus -46.6144 -10.876 94.019
lradius 49.3676 -0 0
lwrist 15.2393 0 0
lhand 8.65097 9.05374 -0.0202069
lfingers 7.12502 -0 0
lthumb 33.8488 35.8997 -0.0111013
rclavicle -1.08162e-14 -1.53305e-15 2.77695e-32
rhumerus -42.7785 0.94859 -68.3459
rradius 51.0417 -0 0
rwrist 3.4441 0 0
rhand -21.2148 -15.7655 -0.0216985
rfingers 7.12502 -0 0
rthumb 5.16181 -45.61 0.00389298
108
root 7.6081 16.7429 -26.6038 0.555153 12.2601 -2.65894
lfemur -21.8242 -2.27384 -13.4369
ltibia 36.5652 -0 0
lfoot -17.095 -8.38577 0.00351524
ltoes 25.5524 -0 0
rfemur -44.1249 -6.62077 1.78973
rtibia 88.8805 -0 0
rfoot 33.5501 23.4538 -0.82572
rtoes 16.6702 -0 0
lowerback 4.12719 0.857643 -0.70799
upperback 0.0935555 1.15924 2.03362
thorax -2.26147 0.598543 2.43098
lowerneck -10.7443 -4.66466 2.05796
upperneck -0.192994 -6.46719 0.816159
head 1.71438 -3.19226 -0.38481
lclavicle -1.12182e-14 -1.01979e-15 4.38354e-32
lhumerus -46.508 -11.0333 93.9918
lradius 49.5073 -0 0
lwrist 15.2876 0 0
lhand 8.85763 9.04331 -0.0368162
lfingers 7.12502 -0 0
lthumb 34.0481 35.8719 -0.019063
rclavicle -1.12182e-14 -1.01979e-15 4.38354e-32
rhumerus -42.7192 0.615964 -67.4648
rradius 51.6257 -0 0
rwrist 2.94357 0 0
rhand -20.0086 -15.6449 -0.0606762
rfingers 7.12502 -0 0
rthumb 6.3199 -45.3711 -0.00391346
109
root 7.646 16.7508 -26.5854 -0.0235876 12.1306 -2.45007
lfemur -20.8083 -2.03556 -13.8242
ltibia 36.1061 -0 0
lfoot -16.9537 -8.68541 0.00503834
ltoes 25.9959 -0 0
rfemur -45.66 -7.70975 2.51827
rtibia 87.8078 -0 0
rfoot 32.9444 23.9279 -1.10217
rtoes 14.9946 -0 0
lowerback 4.68607 0.720085 -0.911259
upperback 0.329738 0.963594 2.01038
thorax -2.31734 0.501673 2.53687
lowerneck -10.8154 -4.53948 2.00662
upperneck -0.0539486 -6.29889 0.812812
head 1.77464 -3.10671 -0.371418
lclavicle -1.17046e-14 -2.76445e-16 4.4909e-32
lhumerus -46.3662 -11.1811 93.9383
lradius 49.6468 -0 0
lwrist 15.3116 0 0
lhand 8.96165 8.98237 -0.0497911
lfingers 7.12502 -0 0
lthumb 34.1496 35.8124 -0.0240672
rclavicle -1.17046e-14 -2.76445e-16 4.4909e-32
rhumerus -42.602 0.243458 -66.5505
rradius 52.2413 -0 0
rwrist 2.37764 0 0
rhand -18.5509 -15.4972 -0.116342
rfingers 7.12502 -0 0
rthumb 7.71955 -45.0818 -0.0251605
